<?xml version="1.0" encoding="UTF-8"?><svg id="uuid-166017ac-f7e8-4587-a1ed-2edde7de9128" xmlns="http://www.w3.org/2000/svg" width="198.4252" height="198.4252" viewBox="0 0 198.4252 198.4252"><defs><style>.uuid-684290a5-4c26-400b-be95-b2f0c96634d9{fill:#fff;}.uuid-18b7bbc9-4f40-4c4b-b87a-fdd748d29473{fill:none;}</style></defs><g id="uuid-3fa12295-898f-413b-afc7-9ff38aa3d3d2"><g><g><path class="uuid-684290a5-4c26-400b-be95-b2f0c96634d9" d="M46.9505,41.6676l-2.7601,2.4466-7.4687-8.4193,4.0562-3.5999c1.1854-1.0485,2.3135-1.5922,3.3863-1.6233,1.0281-.035,1.9359,.3922,2.7242,1.2815,1.7504,1.9728,1.4592,3.9922-.8708,6.0581l-1.3912,1.2349,2.3242,2.6213Zm-4.0669-4.5863l1.1456-1.0136c.7408-.6602,.8204-1.3165,.2388-1.9689-.5252-.5942-1.2796-.4544-2.2611,.4194l-.7835,.6951,1.6601,1.8679Z"/><path class="uuid-684290a5-4c26-400b-be95-b2f0c96634d9" d="M59.4569,32.3318l-3.1513,1.7631-1.9718-11.7939,3.2737-1.8291,9.0123,7.8562-3.2067,1.7903-1.1068-1.0796-3.2057,1.7903,.3563,1.5029Zm1.1466-5.029l-3.0048-2.9397,.9718,4.0776,2.0329-1.1378Z"/><path class="uuid-684290a5-4c26-400b-be95-b2f0c96634d9" d="M77.7601,24.4058l-4.6591,1.3281-3.0912-10.8192,4.7494-1.3592c1.7931-.5126,3.2911-.4815,4.494,.0816,1.2631,.5942,2.1426,1.7592,2.6387,3.4912,1.0728,3.7553-.3039,6.1824-4.1319,7.2775Zm-3.4824-7.9804l1.6495,5.7708,.7514-.2136c1.7029-.4854,2.2776-1.7009,1.7223-3.6465-.3155-1.1029-.7252-1.798-1.231-2.0854-.5048-.2913-1.2436-.2951-2.2155-.0194l-.6767,.1942Z"/><path class="uuid-684290a5-4c26-400b-be95-b2f0c96634d9" d="M100.2642,21.2058l-9.3812,.4854-.5786-11.2425,9.1628-.4699,.1349,2.6213-5.4794,.2835,.0835,1.6077,4.6358-.2408,.1349,2.6252-4.6358,.2369,.0903,1.7631,5.6979-.2913,.1349,2.6213Z"/><path class="uuid-684290a5-4c26-400b-be95-b2f0c96634d9" d="M116.6403,23.1281l-8.6395-1.4058,1.8038-11.1066,3.6416,.5903-1.3834,8.5163,4.9989,.8116-.4213,2.5941Z"/><path class="uuid-684290a5-4c26-400b-be95-b2f0c96634d9" d="M136.6523,30.8328l-3.229-1.7825,5.4396-9.8522,7.6628,4.229-1.2689,2.299-4.4338-2.4466-.9893,1.7903,3.53,1.9495-1.2689,2.299-3.5309-1.9495-1.9116,3.464Z"/><path class="uuid-684290a5-4c26-400b-be95-b2f0c96634d9" d="M159.5486,39.1705l-2.63-2.3145c.7262-.998,.631-1.899-.2845-2.7067-1.0407-.9126-2.2834-.5514-3.729,1.0951-.6184,.7029-.9854,1.3242-1.098,1.864-.1466,.7029,.101,1.3359,.7427,1.899,.8213,.7262,1.7145,.6641,2.6795-.1825l2.664,2.3456c-1.0815,.9747-2.2582,1.4563-3.529,1.4446-1.2708-.0155-2.4659-.5165-3.5843-1.499-1.3932-1.2233-2.1378-2.5864-2.2339-4.0854-.0961-1.5029,.4611-2.9397,1.6718-4.3184,1.1767-1.3359,2.5329-2.0582,4.0698-2.1669,1.4922-.101,2.8407,.3767,4.0455,1.4369,1.2757,1.1223,2.0126,2.299,2.2096,3.5339,.1981,1.2349-.134,2.4543-.9941,3.6543Z"/></g><g><path class="uuid-684290a5-4c26-400b-be95-b2f0c96634d9" d="M62.8073,166.4107l4.3727,2.0932c1.1922,.5709,1.8708,1.3281,2.0359,2.2757,.0961,.5592,.0136,1.1145-.2485,1.6582-.3048,.6408-.7369,1.0757-1.2951,1.3126-.2913,.1243-.6563,.1903-1.0951,.2019,.4243,.4466,.7048,.8544,.8437,1.2233,.2437,.6602,.1796,1.3747-.1913,2.1514-.3126,.6524-.8,1.1417-1.464,1.4757-.9912,.4932-2.1572,.4233-3.496-.2175l-4.3018-2.0621,4.8396-10.1124Zm.0437,11.0134c.8485,.4039,1.5689,.4505,2.163,.1398,.3747-.2019,.666-.5165,.8747-.9553,.3514-.734,.2592-1.3903-.2757-1.9767-.2835-.3107-.7155-.6019-1.2941-.8815l-2.7455-1.3126-1.7038,3.5572,2.9815,1.4291Zm1.7708-4.8892c.5844,.2796,1.0776,.4155,1.4796,.4116,.6301-.0078,1.1029-.3417,1.4174-.998,.3165-.6602,.2582-1.2349-.1748-1.7242-.2447-.2757-.6689-.5553-1.2718-.8466l-2.4688-1.1806-1.499,3.13,2.5174,1.2077Z"/><path class="uuid-684290a5-4c26-400b-be95-b2f0c96634d9" d="M76.598,172.2514l7.8803,2.0233-.3408,1.3281-6.4474-1.6543-.8456,3.3009,5.959,1.5262-.3223,1.2582-5.959-1.5301-.9437,3.6815,6.5571,1.6815-.332,1.2971-7.991-2.0504,2.7853-10.8619Z"/><path class="uuid-684290a5-4c26-400b-be95-b2f0c96634d9" d="M90.8247,175.2494l5.0891,.2835c.8378,.0466,1.5213,.2097,2.0514,.4893,1.0068,.532,1.4737,1.4446,1.4029,2.73-.0369,.6679-.2058,1.2116-.5068,1.6233-.301,.4078-.7068,.7301-1.2194,.9631,.4272,.2019,.7437,.4544,.9485,.7573,.2048,.299,.3019,.7767,.2913,1.4291l-.0301,1.5029c-.0087,.4272,.0097,.7495,.0534,.9592,.0718,.3612,.2223,.598,.4505,.7145l-.0146,.2485-1.8592-.101c-.0456-.101-.0796-.2252-.101-.3806-.0223-.1553-.0311-.4505-.0272-.8893l.0117-1.8718c.0058-.734-.2311-1.2388-.7107-1.5145-.2738-.1515-.7116-.2447-1.3135-.2796l-3.3543-.1864-.266,4.7999-1.5165-.0816,.6204-11.1959Zm4.6416,5.4018c.6912,.0388,1.2466-.0738,1.665-.334,.4184-.2641,.6485-.765,.6893-1.5068,.0447-.7961-.2068-1.3553-.7543-1.6776-.2932-.1709-.6912-.268-1.1951-.2951l-3.6018-.2019-.2126,3.8252,3.4096,.1903Z"/><path class="uuid-684290a5-4c26-400b-be95-b2f0c96634d9" d="M106.3125,175.362l1.5067-.1981,1.2835,9.794,5.5775-.734,.1738,1.3242-7.0833,.9281-1.4582-11.1143Z"/><path class="uuid-684290a5-4c26-400b-be95-b2f0c96634d9" d="M119.5635,172.9193l1.4766-.4155,3.0426,10.792-1.4766,.4155-3.0426-10.792Z"/><path class="uuid-684290a5-4c26-400b-be95-b2f0c96634d9" d="M127.7429,170.3174l1.6203-.7611,8.9075,5.829-3.8445-8.2018,1.3126-.6136,4.7591,10.1513-1.5446,.7223-8.9783-5.7824,3.8406,8.194-1.3135,.6136-4.7591-10.1513Z"/></g><g><path class="uuid-18b7bbc9-4f40-4c4b-b87a-fdd748d29473" d="M99.2121,3.9533C46.6867,3.9533,3.9552,46.6865,3.9552,99.2136s42.7315,95.2583,95.2569,95.2583,95.2579-42.7331,95.2579-95.2583S151.7375,3.9533,99.2121,3.9533Z"/><path class="uuid-684290a5-4c26-400b-be95-b2f0c96634d9" d="M99.2121,0C44.5062,0,0,44.5059,0,99.2136s44.5062,99.2116,99.2121,99.2116,99.2131-44.5059,99.2131-99.2116S153.918,0,99.2121,0Zm0,194.4719C46.6867,194.4719,3.9552,151.7387,3.9552,99.2136S46.6867,3.9533,99.2121,3.9533s95.2579,42.7331,95.2579,95.2602-42.7325,95.2583-95.2579,95.2583Z"/><path class="uuid-684290a5-4c26-400b-be95-b2f0c96634d9" d="M31.4717,99.2136c0-13.692,4.096-26.4393,11.1084-37.1061-.0029-1.165-.0019-2.3291-.0049-3.4931-8.2269,11.4444-13.0918,25.4597-13.0918,40.5992,0,34.5236,25.2258,63.2512,58.2096,68.7598-1.7344-1.0145-3.4222-2.0407-5.061-3.0796-29.3626-7.4154-51.1604-34.0469-51.1604-65.6803Z"/><path class="uuid-684290a5-4c26-400b-be95-b2f0c96634d9" d="M156.1063,58.9746l.001,3.5407c6.8502,10.5843,10.8462,23.1801,10.8462,36.6983,0,31.4411-21.5332,57.9435-50.6254,65.5453-1.6485,1.0611-3.3198,2.1038-5.0299,3.1135,32.7057-5.7426,57.6436-34.3343,57.6436-68.6588,0-14.9803-4.7644-28.8616-12.8355-40.239Z"/><path class="uuid-684290a5-4c26-400b-be95-b2f0c96634d9" d="M99.2121,31.4712c13.5689,0,26.2078,4.0252,36.8162,10.9221,1.9737,.5398,3.9358,1.1252,5.8872,1.7543-11.8088-9.1794-26.6234-14.6648-42.7034-14.6648-16.1397,0-31.0038,5.5271-42.834,14.7677,1.9373-.6379,3.9033-1.2281,5.8935-1.7767,10.6331-6.9465,23.3186-11.0027,36.9405-11.0027Z"/></g><path class="uuid-684290a5-4c26-400b-be95-b2f0c96634d9" d="M152.7908,123.2636c.8407-2.0524,1.3174-4.2776,1.3407-6.264,.0913-7.6911,.0786-15.5104,.067-23.0714l-.0087-36.1352c0-6.8853-.2466-7.2445-6.5939-9.6406-20.1682-7.6134-41.6714-10.2445-63.9046-7.8096-13.1005,1.433-25.4079,4.6135-36.5813,9.4581-1.8718,.8116-2.6319,1.9553-2.6252,3.9475,.0447,12.7997,.0505,25.5995,.0563,38.3992,.0029,8.495,.0068,16.9919,.0223,25.4869,.0019,1.2796,.2379,2.6291,.6835,3.9009,1.9213,5.4931,4.9338,10.7707,9.2094,16.1375,10.4812,13.1551,24.2827,23.8655,43.4344,33.712,.3874,.2,.8524,.2835,1.3301,.2835,.7077,0,1.4417-.1864,1.9931-.4621,12.1821-6.1533,23.0507-13.557,32.3047-22.0054,9.4172-8.5979,15.5412-16.8404,19.2722-25.9374ZM53.0788,49.6408c2.5048-.9417,5.0532-1.8165,7.659-2.597v94.7612c-1.6223-1.764-3.18-3.5669-4.66-5.4251-1.0849-1.3621-2.08-2.7165-2.9989-4.0698V49.6408Zm15.4218-4.6281c2.9412-.6767,5.9362-1.2524,8.9803-1.732v113.3065c-3.196-2.3174-6.1818-4.7067-8.9803-7.1814V45.0127Zm16.7431-2.7165c2.7125-.2718,5.4119-.4631,8.0997-.5825v124.8849c-2.8222-1.564-5.5246-3.1524-8.0997-4.7718V42.2962Zm66.8725,15.5007l.0087,36.1333c.0117,7.5552,.0243,15.3667-.067,23.0461-.0204,1.7301-.4417,3.6834-1.1854,5.4989-1.749,4.263-4.062,8.3377-7.0109,12.3599l-37.7458-37.7459,44.9713-44.9719c1.0218,.9718,1.0291,2.3631,1.0291,5.6795Zm-51.0099,33.3217V41.5739c14.5539,.1563,28.699,2.597,42.2558,7.2882l-42.2558,42.2564Zm0,11.9415l37.8074,37.808c-2.0431,2.2553-4.2877,4.5145-6.793,6.8028-8.9036,8.127-19.3406,15.2667-31.0145,21.2491V103.0601Z"/><g><g><path class="uuid-684290a5-4c26-400b-be95-b2f0c96634d9" d="M16.0334,103.6688h-7.5755c-.0417-.9087,.3146-1.7572,1.0699-2.5456,.3728-.3903,.9291-.8291,1.6679-1.3126,.8058-.534,1.3155-.899,1.5271-1.0951,.4417-.3981,.6621-.8175,.6621-1.2602,0-.2718-.1078-.4893-.3243-.6544-.2165-.167-.4689-.2485-.7573-.2485-.8835,0-1.3165,.5728-1.299,1.7184h-2.3805c.034-2.4699,1.3029-3.7048,3.8067-3.7048,1.0262,0,1.8582,.2214,2.4951,.6621,.7388,.5184,1.1077,1.2641,1.1077,2.2407,0,.6951-.2505,1.2932-.7514,1.7941-.2544,.2544-.798,.6408-1.6291,1.1592-.4417,.2466-1.0446,.6078-1.8077,1.0815h4.1882v2.165Z"/><path class="uuid-684290a5-4c26-400b-be95-b2f0c96634d9" d="M17.1907,99.098c0-1.5437,.3951-2.7106,1.1844-3.5009,.6786-.6874,1.5825-1.031,2.7116-1.031,1.197,0,2.1339,.3825,2.8135,1.1456,.7126,.7903,1.0699,1.9145,1.0699,3.3747,0,1.4174-.2845,2.532-.8534,3.3475-.6621,.9514-1.6718,1.4252-3.03,1.4252s-2.3727-.4699-3.0426-1.4116c-.5689-.8155-.8534-1.932-.8534-3.3494Zm3.896,2.7747c.8233,0,1.2349-.8815,1.2349-2.6465,0-.7903-.0466-1.3534-.1398-1.6932-.1786-.6544-.5524-.9806-1.1203-.9806-.8155,0-1.2223,.899-1.2223,2.699,0,.8563,.0806,1.4893,.2417,1.897,.1951,.4835,.5301,.7243,1.0058,.7243Z"/></g><g><path class="uuid-684290a5-4c26-400b-be95-b2f0c96634d9" d="M181.069,103.6688h-7.5755c-.0417-.9087,.3146-1.7572,1.0699-2.5456,.3728-.3903,.9291-.8291,1.6679-1.3126,.8058-.534,1.3155-.899,1.5271-1.0951,.4417-.3981,.6621-.8175,.6621-1.2602,0-.2718-.1078-.4893-.3243-.6544-.2165-.167-.4689-.2485-.7573-.2485-.8835,0-1.3165,.5728-1.299,1.7184h-2.3805c.034-2.4699,1.3029-3.7048,3.8067-3.7048,1.0262,0,1.8582,.2214,2.4951,.6621,.7388,.5184,1.1077,1.2641,1.1077,2.2407,0,.6951-.2505,1.2932-.7514,1.7941-.2544,.2544-.798,.6408-1.6291,1.1592-.4417,.2466-1.0446,.6078-1.8077,1.0815h4.1882v2.165Z"/><path class="uuid-684290a5-4c26-400b-be95-b2f0c96634d9" d="M189.9619,103.6688h-7.5755c-.0417-.9087,.3146-1.7572,1.0699-2.5456,.3728-.3903,.9291-.8291,1.6679-1.3126,.8058-.534,1.3155-.899,1.5271-1.0951,.4417-.3981,.6621-.8175,.6621-1.2602,0-.2718-.1078-.4893-.3243-.6544-.2165-.167-.4689-.2485-.7573-.2485-.8835,0-1.3165,.5728-1.299,1.7184h-2.3805c.034-2.4699,1.3029-3.7048,3.8067-3.7048,1.0262,0,1.8582,.2214,2.4951,.6621,.7388,.5184,1.1077,1.2641,1.1077,2.2407,0,.6951-.2505,1.2932-.7514,1.7941-.2544,.2544-.798,.6408-1.6291,1.1592-.4417,.2466-1.0446,.6078-1.8077,1.0815h4.1882v2.165Z"/></g></g></g></g></svg>